<?xml version="1.0"?>
<svg xmlns="http://www.w3.org/2000/svg" height="512px" viewBox="0 0 512 512" width="512px" class=""><g><path d="m64 128h384v160h-384zm0 0" fill="#e0f7fa" data-original="#E0F7FA"/><path d="m16 160c-8.832031 0-16-7.167969-16-16v-80h80v32h-48v48c0 8.832031-7.167969 16-16 16zm0 0" fill="#ffd740" data-original="#FFD740" class="active-path" style="fill:#FF007F" data-old_color="#FF7500"/><path d="m496 160c-8.832031 0-16-7.167969-16-16v-48h-48v-32h80v80c0 8.832031-7.167969 16-16 16zm0 0" fill="#ffd740" data-original="#FFD740" class="active-path" style="fill:#FF007F" data-old_color="#FF7500"/><path d="m304 160v96h144v32h-384v-32h144v-96h-144v-32h384v32zm0 0" fill="#c6f3f4" data-original="#C6F3F4" class=""/><path d="m448 128v-92.257812l-10.03125-4.03125c-50.863281-20.445313-115.488281-31.710938-181.96875-31.710938s-131.105469 11.265625-181.96875 31.710938l-10.03125 4.03125v92.257812h144c17.679688 0 32 14.320312 32 32v96c0 17.679688-14.320312 32-32 32h-144v112h384v-112h-144c-17.679688 0-32-14.320312-32-32v-96c0-17.679688 14.320312-32 32-32zm0 0" fill="#448aff" data-original="#448AFF" class=""/><path d="m192 384v80c0 26.398438-21.601562 48-48 48s-48-21.601562-48-48v-80zm0 0" fill="#57565c" data-original="#57565C"/><path d="m416 384v80c0 26.398438-21.601562 48-48 48s-48-21.601562-48-48v-80zm0 0" fill="#57565c" data-original="#57565C"/><path d="m96 384h96v64h-96zm0 0" fill="#2d2d30" data-original="#2D2D30"/><path d="m320 384h96v64h-96zm0 0" fill="#2d2d30" data-original="#2D2D30"/><path d="m304 96h-96c-8.832031 0-16-7.167969-16-16s7.167969-16 16-16h96c8.832031 0 16 7.167969 16 16s-7.167969 16-16 16zm0 0" fill="#ffd740" data-original="#FFD740" class="active-path" style="fill:#FF007F" data-old_color="#FF7500"/><path d="m128 320h32v32h-32zm0 0" fill="#fff" data-original="#FFF" class="" style="fill:#FFF"/><path d="m352 320h32v32h-32zm0 0" fill="#fff" data-original="#FFF" class="" style="fill:#FFF"/><path d="m56 416h400c8.832031 0 16-7.167969 16-16s-7.167969-16-16-16h-400c-8.832031 0-16 7.167969-16 16s7.167969 16 16 16zm0 0" fill="#ffd740" data-original="#FFD740" class="active-path" style="fill:#FF007F" data-old_color="#FF7500"/></g> </svg>
