<?xml version="1.0"?>
<svg xmlns="http://www.w3.org/2000/svg" height="512px" viewBox="0 0 512 512" width="512px" class=""><g><path d="m271 60v76c0 8.402344-6.597656 15-15 15s-15-6.597656-15-15v-46zm0 0" fill="#537983" data-original="#537983"/><path d="m256 151v-76l15-15v76c0 8.402344-6.597656 15-15 15zm0 0" fill="#3e5959" data-original="#3E5959"/><path d="m346 0h-90c-8.402344 0-15 6.597656-15 15v75h45c41.101562 0 74.699219-33.300781 75-74.699219 0-8.402343-6.597656-15.300781-15-15.300781zm0 0" fill="#ff637b" data-original="#FF637B"/><path d="m286 90h-30v-90h90c8.402344 0 15 6.898438 15 15.300781-.300781 41.398438-33.898438 74.699219-75 74.699219zm0 0" fill="#e63950" data-original="#E63950"/><path d="m391 256v60c0 8.398438-6.597656 15-15 15h-240c-8.402344 0-15-6.601562-15-15v-60c0-74.402344 60.601562-135 135-135s135 60.597656 135 135zm0 0" fill="#c5d3dd" data-original="#C5D3DD" class=""/><path d="m391 256v60c0 8.398438-6.597656 15-15 15h-120v-210c74.398438 0 135 60.597656 135 135zm0 0" fill="#9facba" data-original="#9FACBA" class=""/><path d="m196 331c-8.289062 0-15-6.710938-15-15v-30c0-8.289062 6.710938-15 15-15s15 6.710938 15 15v30c0 8.289062-6.710938 15-15 15zm0 0" fill="#00c0f1" data-original="#00C0F1"/><path d="m271 286v30c0 8.398438-6.597656 15-15 15s-15-6.601562-15-15v-30c0-8.402344 6.597656-15 15-15s15 6.597656 15 15zm0 0" fill="#00c0f1" data-original="#00C0F1"/><path d="m316 331c-8.289062 0-15-6.710938-15-15v-30c0-8.289062 6.710938-15 15-15s15 6.710938 15 15v30c0 8.289062-6.710938 15-15 15zm0 0" fill="#009ae4" data-original="#009AE4"/><path d="m271 286v30c0 8.398438-6.597656 15-15 15v-60c8.402344 0 15 6.597656 15 15zm0 0" fill="#009ae4" data-original="#009AE4"/><path d="m512 316v181c0 8.398438-6.597656 15-15 15h-46l-30-30-30 30h-60l-30-30h-90l-30 30h-60l-30-30-30 30h-46c-8.402344 0-15-6.601562-15-15v-181c0-8.402344 6.597656-15 15-15h482c8.402344 0 15 6.597656 15 15zm0 0" fill="#deecf1" data-original="#DEECF1" class=""/><path d="m512 316v181c0 8.398438-6.597656 15-15 15h-46l-30-30-30 30h-60l-30-30h-45v-181h241c8.402344 0 15 6.597656 15 15zm0 0" fill="#c5d3dd" data-original="#C5D3DD" class=""/><path d="m436 226c0 8.398438-6.597656 15-15 15h-330c-8.402344 0-15-6.601562-15-15 0-8.402344 6.597656-15 15-15h330c8.402344 0 15 6.597656 15 15zm0 0" fill="#deecf1" data-original="#DEECF1" class=""/><path d="m331 376v136h-30l-15-15-15 15h-30l-15-15-15 15h-30v-136c0-8.402344 6.597656-15 15-15h120c8.402344 0 15 6.597656 15 15zm0 0" fill="#537983" data-original="#537983"/><path d="m331 376v136h-30l-15-15-15 15h-15v-151h60c8.402344 0 15 6.597656 15 15zm0 0" fill="#3e5959" data-original="#3E5959"/><path d="m211 391h30v121h-30zm0 0" fill="#25d9f8" data-original="#25D9F8"/><path d="m271 391h30v121h-30zm0 0" fill="#00c0f1" data-original="#00C0F1"/><path d="m61 421 25.3125-30 34.6875 30v91h-60zm0 0" fill="#3e5959" data-original="#3E5959"/><path d="m391 421 25.3125-30 34.6875 30v91h-60zm0 0" fill="#293939" data-original="#293939"/><path d="m421 241h-165v-30h165c8.402344 0 15 6.597656 15 15 0 8.398438-6.597656 15-15 15zm0 0" fill="#c5d3dd" data-original="#C5D3DD" class=""/><path d="m451 421h-60v-45c0-8.285156 6.714844-15 15-15h30c8.285156 0 15 6.714844 15 15zm0 0" fill="#3e5959" data-original="#3E5959"/><path d="m121 421h-60v-45c0-8.285156 6.714844-15 15-15h30c8.285156 0 15 6.714844 15 15zm0 0" fill="#537983" data-original="#537983"/></g> </svg>
