<?xml version="1.0"?>
<svg xmlns="http://www.w3.org/2000/svg" xmlns:xlink="http://www.w3.org/1999/xlink" version="1.1" id="Capa_1" x="0px" y="0px" viewBox="0 0 512.008 512.008" style="enable-background:new 0 0 512.008 512.008;" xml:space="preserve" width="512px" height="512px" class=""><g><g>
	<g>
		<path style="fill:#97002C;" d="M307.003,62h-51c-8.284,0-15-6.716-15-15V15c0-8.284,6.716-15,15-15h51c8.284,0,15,6.716,15,15v32    C322.003,55.284,315.287,62,307.003,62z" data-original="#97002C"/>
	</g>
	<path style="fill:#97002C;" d="M241.003,30.837V47c0,8.284,6.716,15,15,15h51c8.284,0,15-6.716,15-15V30.837H241.003z" data-original="#97002C"/>
	<g>
		<path style="fill:#00607F;" d="M256.004,102c-8.284,0-15-6.716-15-15V15.004c0-8.284,6.716-15,15-15s15,6.716,15,15V87    C271.004,95.284,264.288,102,256.004,102z" data-original="#00607F"/>
	</g>
	<path style="fill:#002C3C;" d="M256.004,0.004l-0.001,0V102l0.001,0c8.284,0,15-6.716,15-15V15.004   C271.004,6.72,264.288,0.004,256.004,0.004z" data-original="#002C3C"/>
	<g>
		<path style="fill:#00607F;" d="M497.003,484H15.005c-8.284,0-15-6.716-15-15V226c0-8.284,6.716-15,15-15h481.998    c8.284,0,15,6.716,15,15v243C512.003,477.284,505.287,484,497.003,484z" data-original="#00607F"/>
	</g>
	<g>
		<path style="fill:#FFF4F4;" d="M153.003,512.008c-3.978,0-7.793-1.58-10.606-4.393c-2.813-2.813-4.394-6.628-4.394-10.607V201.172    c0-65.065,52.935-118,118-118c65.064,0,117.999,52.935,117.999,118v295.831c0,8.284-6.716,15-15,15L153.003,512.008z" data-original="#FFF4F4"/>
	</g>
	<path style="fill:#002C3C;" d="M497.003,211H256.004v273h240.999c8.284,0,15-6.716,15-15V226   C512.003,217.716,505.287,211,497.003,211z" data-original="#002C3C"/>
	<path style="fill:#EEE1DC;" d="M256.003,83.172L256.003,83.172l0,428.833l103-0.003c8.284,0,15-6.716,15-15V201.172   C374.002,136.107,321.067,83.172,256.003,83.172z" data-original="#EEE1DC"/>
	<path style="fill:#00DDC1;" d="M256.003,83.172c-65.065,0-118,52.935-118,118V211h235.999v-9.828   C374.002,136.107,321.067,83.172,256.003,83.172z" data-original="#00DDC1"/>
	<g>
		<path style="fill:#DDEBF0;" d="M88.003,302.502h-38c-8.284,0-15-6.716-15-15s6.716-15,15-15h38c8.284,0,15,6.716,15,15    S96.288,302.502,88.003,302.502z" data-original="#DDEBF0" class=""/>
	</g>
	<g>
		<path style="fill:#DDEBF0;" d="M88.003,362.502h-38c-8.284,0-15-6.716-15-15s6.716-15,15-15h38c8.284,0,15,6.716,15,15    S96.288,362.502,88.003,362.502z" data-original="#DDEBF0" class=""/>
	</g>
	<g>
		<path style="fill:#DDEBF0;" d="M88.003,422.502h-38c-8.284,0-15-6.716-15-15s6.716-15,15-15h38c8.284,0,15,6.716,15,15    S96.288,422.502,88.003,422.502z" data-original="#DDEBF0" class=""/>
	</g>
	<g>
		<path style="fill:#00607F;" d="M299.002,282.502h-86c-8.284,0-15-6.716-15-15s6.716-15,15-15h86c8.284,0,15,6.716,15,15    S307.287,282.502,299.002,282.502z" data-original="#00607F"/>
	</g>
	<g>
		<path style="fill:#00607F;" d="M299.002,342.502h-86c-8.284,0-15-6.716-15-15s6.716-15,15-15h86c8.284,0,15,6.716,15,15    S307.287,342.502,299.002,342.502z" data-original="#00607F"/>
	</g>
	<g>
		<path style="fill:#00DDC1;" d="M299.003,512h-86.002c-8.284,0-15-6.716-15-15V396c0-8.284,6.716-15,15-15h86.002    c8.284,0,15,6.716,15,15v101C314.003,505.284,307.288,512,299.003,512z" data-original="#00DDC1"/>
	</g>
	<g>
		<path style="fill:#DDEBF0;" d="M424.001,302.502h38c8.284,0,15-6.716,15-15s-6.716-15-15-15h-38c-8.284,0-15,6.716-15,15    S415.717,302.502,424.001,302.502z" data-original="#DDEBF0" class=""/>
	</g>
	<g>
		<path style="fill:#DDEBF0;" d="M424.001,362.502h38c8.284,0,15-6.716,15-15s-6.716-15-15-15h-38c-8.284,0-15,6.716-15,15    S415.717,362.502,424.001,362.502z" data-original="#DDEBF0" class=""/>
	</g>
	<g>
		<path style="fill:#DDEBF0;" d="M424.001,422.502h38c8.284,0,15-6.716,15-15s-6.716-15-15-15h-38c-8.284,0-15,6.716-15,15    S415.717,422.502,424.001,422.502z" data-original="#DDEBF0" class=""/>
	</g>
	<path style="fill:#00AB94" d="M256.003,83.172L256.003,83.172l0,127.828h118v-9.828   C374.002,136.107,321.067,83.172,256.003,83.172z" data-original="#00AB94" class="active-path"/>
	<path style="fill:#002C3C;" d="M299.002,252.502h-43v30h43c8.284,0,15-6.716,15-15S307.287,252.502,299.002,252.502z" data-original="#002C3C"/>
	<path style="fill:#002C3C;" d="M299.002,312.502h-43v30h43c8.284,0,15-6.716,15-15S307.287,312.502,299.002,312.502z" data-original="#002C3C"/>
	<path style="fill:#00AB94" d="M299.003,381h-43.001v131h43.001c8.284,0,15-6.716,15-15V396   C314.003,387.716,307.288,381,299.003,381z" data-original="#00AB94" class="active-path"/>
</g></g> </svg>
