<?xml version="1.0"?>
<svg xmlns="http://www.w3.org/2000/svg" xmlns:xlink="http://www.w3.org/1999/xlink" version="1.1" id="Capa_1" x="0px" y="0px" viewBox="0 0 512 512" style="enable-background:new 0 0 512 512;" xml:space="preserve" width="512px" height="512px" class=""><g><path style="fill:#9266CC;" d="M470.708,512v-57.806c0-54.733-60.878-90.838-115.612-90.838H156.904  c-54.718,0-115.612,36.104-115.612,90.838V512L470.708,512L470.708,512z" data-original="#9266CC" class=""/><path style="fill:#744EAA;" d="M408.525,194.245c0-140.286-87.683-182.106-152.425-182.106S94.226,54.404,94.226,194.245  c0,57.624,20.728,102.101,10.636,136.059c-19.802,66.692,48.375,123.985,101.59,148.66c81.589,37.839,165.16-49.548,165.16-49.548  C437.263,429.415,408.525,359.255,408.525,194.245" data-original="#744EAA"/><path style="fill:#9266CC;" d="M417.971,194.245C417.971,53.959,320.857,0,256.098,0C191.355,0,94.241,54.403,94.241,194.245  c0,140.286,118.7,194.245,183.443,194.245c48.54,0,61.968,24.411,93.926,24.411C458.848,412.899,417.971,339.933,417.971,194.245" data-original="#9266CC" class=""/><path style="fill:#F3D2A2;" d="M237.895,101.846c-35.79,4.377-108.312,64.032-110.97,95.776  c3.303,88.212,59.788,158.488,129.188,158.488c68.987,0,125.241-69.499,129.105-157.017  C381.418,159.917,270.942,97.8,237.895,101.846" data-original="#F3D2A2" class=""/><path style="fill:#494646" d="M255.08,306.261c-26.508,0-40.399-13.113-41.885-14.617c-4.427-4.394-4.427-11.561,0-15.971  c4.377-4.36,11.429-4.394,15.855-0.1c0.578,0.528,9.134,8.11,26.03,8.11c17.16,0,25.715-7.812,26.045-8.126  c4.525-4.229,11.611-4.096,15.905,0.313c4.294,4.442,4.294,11.429-0.066,15.773C295.478,293.147,281.605,306.261,255.08,306.261" data-original="#DF1F32" class="active-path" data-old_color="#4B4747"/><g>
	<path style="fill:#662113;" d="M199.985,212.833L199.985,212.833c-7.68,0-13.973-6.293-13.973-13.973v-13.956   c0-7.68,6.293-13.973,13.973-13.973s13.989,6.293,13.989,13.973v13.956C213.974,206.541,207.665,212.833,199.985,212.833" data-original="#662113"/>
	<path style="fill:#662113;" d="M311.708,212.833L311.708,212.833c-7.68,0-13.973-6.293-13.973-13.973v-13.956   c0-7.68,6.293-13.973,13.973-13.973c7.68,0,13.973,6.293,13.973,13.973v13.956C325.68,206.541,319.388,212.833,311.708,212.833" data-original="#662113"/>
</g><path style="fill:#C1694F;" d="M269.822,256.003h-27.929c-3.864,0-6.987-3.121-6.987-6.986v-2.527c0-3.864,3.121-7.002,6.987-7.002  h27.929c3.831,0,6.987,3.138,6.987,7.002v2.527C276.809,252.882,273.654,256.003,269.822,256.003" data-original="#C1694F"/><path style="fill:#553788;" d="M123.872,198.197c0,0,49.548-82.58,132.128-82.58s132.128,82.58,132.128,82.58  S371.612,66.069,256,66.069S123.872,198.197,123.872,198.197" data-original="#553788"/></g> </svg>
